<?xml version="1.0" encoding="UTF-8"?>
<svg id="Layer_2" data-name="Layer 2" xmlns="http://www.w3.org/2000/svg" viewBox="0 0 116.09 100.08">
  <defs>
    <style>
      .cls-1 {
        font-family: 'DegularVar_72.000opsz_554.000wght', 'Degular Variable';
        font-size: 27.11px;
        font-variation-settings: 'opsz' 72, 'wght' 554, 'ital' 0;
      }

      .cls-2 {
        letter-spacing: .25em;
      }

      .cls-3 {
        letter-spacing: .23em;
      }

      .cls-4 {
        letter-spacing: .24em;
      }

      .cls-5 {
        letter-spacing: .25em;
      }

      .cls-6 {
        letter-spacing: .25em;
      }
    </style>
  </defs>
  <g id="Layer_1-2" data-name="Layer 1">
    <g>
      <text class="cls-1" transform="translate(1 94.44)"><tspan class="cls-3" x="0" y="0">S</tspan><tspan class="cls-4" x="20.59" y="0">T</tspan><tspan class="cls-5" x="40.29" y="0">UD</tspan><tspan class="cls-6" x="85.95" y="0">I</tspan><tspan class="cls-2" x="97.77" y="0">O</tspan></text>
      <path d="M115.43,40.66l-.49,28.25h-54.14v-.98c8.46-.2,8.46-1.87,8.46-9.94V10.93c0-8.07,0-9.75-8.46-9.94v-.98h53.06l.39,25.3h-.98c-.79-16.93-4.23-24.12-15.36-24.12h-13.29c-7.97,0-7.97,1.48-7.97,9.55v21.36h3.37c13.39,0,14.37-3.15,14.96-14.67h.98v30.42h-.98c-.59-11.62-1.57-14.77-14.96-14.77h-3.37v25.1c0,7.97,0,9.55,7.97,9.55h11.22c16.73,0,17.91-9.75,18.6-27.07h.98Z"/>
      <path d="M57.68,67.14c-.79,1.08-2.46,3.05-6.4,3.05-3.05,0-5.12-1.08-6.3-2.66-1.18-1.38-1.38-3.84-1.38-7.09v-8.56c0-11.42-7.77-15.16-16.34-15.16h-11.42v21.56c0,8.07,0,9.75,10.73,9.94v.98H0v-.98c8.46-.2,8.46-1.87,8.46-9.94V11.22C8.46,3.15,8.46,1.48,0,1.28V.3h28.45c13.88,0,25.4,4.14,25.4,18.11,0,11.91-8.17,16.83-19.79,18.01,9.26,2.17,17.23,8.27,17.23,16.15v7.68c0,2.16.2,3.74.59,4.82.39.98,1.18,1.87,2.66,1.87,1.67,0,3.45-1.89,3.75-2.58.49-.88.29,1.4-.6,2.78ZM28.45,35.54c13.19,0,17.03-4.92,17.03-17.13S41.64,1.48,28.45,1.48h-4.63c-7.97,0-7.97,1.57-7.97,9.55v24.51h12.6Z"/>
      <path d="M53.01,69.79l1.01-2.89c3.43-.02,4.18-3.49,4.53-9.54.74-12.93-4.16-25.27,18.1-25.27v.94c-21.83,0-16.21,12.68-17.03,25-.34,5.2-.23,10.87-6.61,11.75Z"/>
    </g>
  </g>
</svg>