<?xml version="1.0" encoding="UTF-8"?>
<svg id="Layer_2" data-name="Layer 2" xmlns="http://www.w3.org/2000/svg" viewBox="0 0 308.18 147.69">
  <defs>
    <style>
      .cls-1 {
        letter-spacing: .49em;
      }

      .cls-2 {
        letter-spacing: .5em;
      }

      .cls-3 {
        letter-spacing: .5em;
      }

      .cls-4 {
        letter-spacing: .5em;
      }

      .cls-5 {
        letter-spacing: .48em;
      }

      .cls-6 {
        font-family: 'DegularVar_72.000opsz_554.000wght', 'Degular Variable';
        font-size: 20.78px;
        font-variation-settings: 'opsz' 72, 'wght' 554, 'ital' 0;
      }
    </style>
  </defs>
  <g id="Layer_1-2" data-name="Layer 1">
    <g>
      <g>
        <text class="cls-6" transform="translate(102.34 143.37)"><tspan class="cls-5" x="0" y="0">S</tspan><tspan class="cls-1" x="21.01" y="0">T</tspan><tspan class="cls-3" x="41.34" y="0">UD</tspan><tspan class="cls-4" x="86.79" y="0">I</tspan><tspan class="cls-2" x="101.08" y="0">O</tspan></text>
        <g>
          <path d="M44.22,52.15c-.6.83-1.89,2.34-4.9,2.34-2.34,0-3.92-.83-4.83-2.04-.91-1.06-1.06-2.94-1.06-5.43v-6.57c0-8.75-5.96-11.62-12.53-11.62h-8.75v16.53c0,6.19,0,7.47,8.23,7.62v.75H0v-.75c6.49-.15,6.49-1.43,6.49-7.62V9.28C6.49,3.1,6.49,1.81,0,1.66v-.75h21.81c10.64,0,19.47,3.17,19.47,13.89,0,9.13-6.26,12.9-15.17,13.81,7.1,1.66,13.21,6.34,13.21,12.38v5.89c0,1.66.15,2.87.45,3.7.3.75.9,1.43,2.04,1.43,1.28,0,2.65-1.45,2.87-1.98.38-.68.22,1.07-.46,2.13ZM21.81,27.92c10.11,0,13.05-3.77,13.05-13.13S31.92,1.81,21.81,1.81h-3.55c-6.11,0-6.11,1.21-6.11,7.32v18.79h9.66Z"/>
          <path d="M98.52,52.83c6.49-.15,6.49-1.43,6.49-7.62V9.13c0-6.19,0-7.47-6.49-7.62v-.75h22.87c13.36,0,25.28,10.04,25.28,26.41s-12.23,26.41-25.58,26.41h-22.56v-.75ZM121.09,52.68c14.72,0,19.02-12.38,19.02-25.51S135.8,1.66,121.39,1.66h-4.6c-6.04,0-6.11,1.13-6.11,7.32v36.38c0,6.11,0,7.32,6.11,7.32h4.3Z"/>
          <path d="M149.82,52.83c6.87-.15,6.87-1.43,6.87-7.62V9.13c0-6.19,0-7.47-6.87-7.62v-.75h19.4v.75c-6.87.15-6.87,1.43-6.87,7.62v36.07c0,6.19,0,7.47,6.87,7.62v.75h-19.4v-.75Z"/>
          <path d="M173.03,35.09c0-3.02.53-6.42,1.74-10.11,4.53-14.42,18.64-24.98,29.81-24.98,4.53,0,7.32,1.66,9.21,3.4,1.96,1.89,3.02,3.7,4.38,3.7,1.59,0,2.72-2.04,4.23-7.09h.75l-5.96,21.88h-.68c1.74-7.62.38-20.98-11.85-20.98s-20,12.6-23.7,24.08c-1.66,5.13-2.49,9.96-2.49,13.81,0,9.43,3.77,14.56,12.6,14.56,11.02,0,18.85-10.49,22.1-19.69h.75c-2.94,8.91-10.93,20.68-23.83,20.68-10.49,0-17.05-7.7-17.05-19.24Z"/>
          <path d="M267.05,52.83v.75h-20.68v-.75c8.23-.45,7.55-2.87,5.13-9.06l-3.62-9.28h-20.45l-2.34,6.26c-3.47,9.59-4,11.62,5.13,12.08v.75h-17.43v-.75c6.79-.45,7.62-2.12,11.32-12.08L239.28,0h.83l17.36,43.77c2.49,6.26,4.3,8.6,9.58,9.06ZM247.5,33.66l-10.19-26.04-9.58,26.04h19.77Z"/>
          <path d="M267.05,52.83c6.49-.15,6.49-1.43,6.49-7.62V9.13c0-6.19,0-7.47-6.49-7.62v-.75h21.06v.75c-8.91.15-8.91,1.43-8.91,7.62v36.23c0,6.11,0,7.32,6.11,7.32h6.79c12.75,0,14.72-8.75,15.32-22.19h.75l-.3,23.09h-40.83v-.75Z"/>
          <path d="M40.64,54.18v-.9c2.62-.01,3.65-2.29,5.06-5.45,2.66-5.92,2.88-14.02,19.94-14.02v.83c-16.48,0-16.57,7.86-19.12,13.56-1.44,3.2-2.68,5.97-5.89,5.98Z"/>
          <polygon points="237.82 33.66 84.54 33.68 84.6 34.51 237.87 34.49 237.82 33.66"/>
          <path d="M98.85,52.82l-.22.76-20.15.12.15-.75c8.23-.5,8.21-2.92,7.57-9.1l-.96-9.28-20.07.12-4.04,6.28c-6.13,9.62-7.1,11.67,3.09,12.06l-.22.76-18.34.11.15-.75c6.64-.49,7.91-2.16,14.35-12.16L86.47.07h.83s4.7,43.74,4.7,43.74c.64,6.26,1.79,8.59,6.85,9.02ZM85.16,33.73l-2.72-26.17-16.75,26.28,19.47-.11Z"/>
        </g>
      </g>
      <path d="M273.28,72.53v36.08c0,6.19,0,7.47,6.42,7.62v.75h-19.47v-.75c7.39-.15,7.39-1.43,7.39-7.62v-18.95h-28.75v18.95c0,6.19,0,7.47,7.4,7.62v.75h-19.55v-.75c6.49-.15,6.49-1.43,6.49-7.62v-36.08c0-6.19,0-7.47-6.49-7.62v-.75h19.55v.75c-7.4.15-7.4,1.43-7.4,7.62v16.23h28.75v-16.23c0-6.19,0-7.47-7.39-7.62v-.75h19.47v.75c-6.42.15-6.42,1.43-6.42,7.62Z"/>
      <path d="M176.21,103.79v6.26c0,3.02-.22,4.3-.9,5.36-.6.83-1.89,2.34-4.9,2.34-2.34,0-3.92-.83-4.83-2.03-.91-1.06-1.06-2.95-1.06-5.44v-6.57c0-8.75-5.96-11.62-12.53-11.62h-8.75v16.53c0,6.19,0,7.47,8.23,7.62v.76h-20.37v-.76c6.49-.15,6.49-1.43,6.49-7.62v-36.08c0-6.19,0-7.47-6.49-7.62v-.76h21.81c10.64,0,19.47,3.17,19.47,13.89,0,9.13-6.26,12.9-15.17,13.81,7.1,1.66,13.21,6.34,13.21,12.38v5.89c0,1.66.15,2.87.45,3.7.3.75.9,1.43,2.04,1.43,1.28,0,1.81-.9,2.04-1.43.38-.68.53-1.74.53-3.77v-6.26h.75ZM152.89,91.19c10.11,0,13.05-3.77,13.05-13.13s-2.94-12.98-13.05-12.98h-3.55c-6.11,0-6.11,1.21-6.11,7.32v18.79h9.66Z"/>
      <path d="M78.22,95.32l-.38,21.66h-41.51v-.76c6.49-.15,6.49-1.43,6.49-7.62v-36.08c0-6.19,0-7.47-6.49-7.62v-.76h40.68l.3,19.4h-.75c-.6-12.98-3.24-18.49-11.78-18.49h-10.19c-6.11,0-6.11,1.14-6.11,7.32v16.37h6.11c10.26,0,11.02-2.41,11.47-11.25h.75v23.33h-.75c-.45-8.91-1.21-11.32-11.47-11.32h-6.11v19.24c0,6.12,0,7.32,6.11,7.32h8.6c12.83,0,13.73-7.47,14.26-20.76h.75Z"/>
      <path d="M131.42,116.23v.76h-20.68v-.76c8.23-.45,7.55-2.87,5.13-9.06l-3.62-9.28h-20.45l-2.34,6.26c-3.47,9.58-4,11.62,5.13,12.07v.76h-17.43v-.76c6.79-.45,7.62-2.11,11.32-12.07l15.17-40.75h.83l17.36,43.77c2.49,6.26,4.3,8.61,9.58,9.06ZM111.88,97.06l-10.19-26.04-9.58,26.04h19.77Z"/>
      <path d="M224.58,64.16l-5.29,19.62h-.75c3.24-13.06,2.27-18.72-5.89-18.72h-6.19l-12.53,43.55c-1.74,6.26-2.19,7.47,6.11,7.62l-.23.76h-22.19l.22-.76c8.38-.15,8.76-1.35,10.57-7.62l12.45-43.55h-6.19c-8.23,0-12.38,5.66-16.6,18.72h-.75l5.89-19.62h41.36Z"/>
    </g>
  </g>
</svg>